<?xml version="1.0" encoding="utf-8"?>
<!-- Generator: Adobe Illustrator 22.1.0, SVG Export Plug-In . SVG Version: 6.00 Build 0)  -->
<svg version="1.1" id="Camada_1" xmlns="http://www.w3.org/2000/svg" xmlns:xlink="http://www.w3.org/1999/xlink" x="0px" y="0px"
	 viewBox="0 0 400 112" style="enable-background:new 0 0 400 112;" xml:space="preserve">
<style type="text/css">
	.st0{fill:url(#SVGID_1_);stroke:#000000;stroke-width:0.25;stroke-miterlimit:10;}
	.st1{fill:#DA4453;}
	.st2{fill:#333333;}
	.st3{fill:#FFFFFF;}
	.st4{opacity:0.89;}
</style>
<linearGradient id="SVGID_1_" gradientUnits="userSpaceOnUse" x1="0" y1="56" x2="400" y2="56">
	<stop  offset="0" style="stop-color:#DA4453;stop-opacity:0"/>
	<stop  offset="6.150067e-02" style="stop-color:#C43B5A;stop-opacity:0"/>
	<stop  offset="0.1439" style="stop-color:#AE3160;stop-opacity:0"/>
	<stop  offset="0.2413" style="stop-color:#9D2A65;stop-opacity:0"/>
	<stop  offset="0.3618" style="stop-color:#922568;stop-opacity:0"/>
	<stop  offset="0.5308" style="stop-color:#8B226A;stop-opacity:0"/>
	<stop  offset="1" style="stop-color:#89216B;stop-opacity:0"/>
</linearGradient>
<rect class="st0" width="400" height="112"/>
<g>
	<g>
		<g>
			<g>
				<path class="st1" d="M148.2,72.2c-15.8,2.2-31.5,5.1-47.1,8.8c-2.4-9.9-4.7-19.7-7.1-29.6c16.5-4,33.2-7.1,50-9.4
					C145.4,52.1,146.8,62.2,148.2,72.2z"/>
				<path class="st2" d="M130.1,44.2c4.6-0.8,9.3-1.5,14-2.1c1.1,7.6,2.1,15.3,3.2,22.9c-4.5,0.6-8.9,1.3-13.3,2
					C132.6,59.4,131.4,51.8,130.1,44.2z"/>
				<path class="st2" d="M148.2,72.2c-0.3-2.4-0.7-4.9-1-7.3c-4.5,0.6-8.9,1.3-13.3,2C138.7,68.7,143.5,70.4,148.2,72.2z"/>
			</g>
			<path class="st3" d="M93.7,51.6c5.5,3.9,10.9,7.9,16.1,12c-3.1,5.9-6.2,11.7-9,17.7C98.4,71.3,96,61.4,93.7,51.6z"/>
		</g>
		<g>
			<g>
				<path class="st1" d="M281.8,72.3c15.8,2.2,31.5,5.1,47.1,8.9c2.4-9.9,4.7-19.7,7.1-29.6c-16.5-4-33.2-7.1-50-9.4
					C284.5,52.2,283.1,62.2,281.8,72.3z"/>
				<path class="st2" d="M299.9,44.2c-4.6-0.8-9.3-1.5-14-2.1c-1.1,7.6-2.1,15.3-3.2,22.9c4.5,0.6,8.9,1.3,13.3,2
					C297.4,59.4,298.6,51.8,299.9,44.2z"/>
				<path class="st2" d="M281.8,72.3c0.3-2.4,0.7-4.9,1-7.3c4.5,0.6,8.9,1.3,13.3,2C291.3,68.7,286.5,70.4,281.8,72.3z"/>
			</g>
			<path class="st3" d="M336.2,51.6c-5.5,3.9-10.9,7.9-16.1,12c3.1,5.9,6.2,11.7,9,17.7C331.4,71.3,333.8,61.4,336.2,51.6z"/>
		</g>
		<path class="st1" d="M295.8,67c-53.5-8.8-108.1-8.8-161.6,0c-1.7-10-3.3-20-5-30c56.8-9.4,114.7-9.4,171.5,0
			C299.1,46.9,297.5,56.9,295.8,67z"/>
	</g>
</g>
<g class="st4">
	<g>
		<path class="st3" d="M169.1,43.4c0.9-0.2,1.8-0.4,2.7-0.6c1.6-0.4,2.6-0.5,3.2-0.5c0.8,0,1.5,0.3,2.1,0.7c0.6,0.5,1,1.1,1.2,1.9
			c0.2,0.8,0.1,1.6-0.3,2.2c-0.4,0.6-0.9,1.1-1.7,1.5c-0.6,0.3-1.7,0.6-3.3,0.9c-0.3,0.1-0.6,0.1-0.9,0.2c0.5,2,0.9,3.9,1.4,5.9
			c-0.4,0.1-0.9,0.2-1.3,0.3C171.1,51.8,170.1,47.6,169.1,43.4z M170.8,44.3c0.3,1.4,0.7,2.8,1,4.3c0.7-0.2,1.5-0.3,2.3-0.5
			c0.9-0.2,1.6-0.4,1.9-0.7c0.4-0.2,0.7-0.6,0.8-1c0.2-0.4,0.2-0.8,0.1-1.3c-0.1-0.4-0.3-0.8-0.6-1.1c-0.3-0.3-0.7-0.5-1.1-0.5
			c-0.4-0.1-1.1,0-2,0.2C172.4,44,171.6,44.2,170.8,44.3z"/>
		<path class="st3" d="M180.5,41c0.9-0.2,1.8-0.3,2.7-0.5c1.5-0.3,2.6-0.4,3.1-0.3c0.8,0,1.6,0.3,2.2,0.8c0.6,0.5,0.9,1.2,1.1,2
			c0.1,0.7,0,1.3-0.3,1.9c-0.3,0.6-0.7,1-1.3,1.4c-0.6,0.4-1.4,0.6-2.6,0.8c1.9,1.7,3.8,3.5,5.6,5.2c-0.5,0.1-1.1,0.2-1.6,0.2
			c-1.8-1.8-3.7-3.5-5.7-5.2c-0.3,0-0.5,0.1-0.8,0.1c0.3,2,0.7,3.9,1,5.9c-0.4,0.1-0.9,0.2-1.3,0.2C182,49.5,181.2,45.3,180.5,41z
			 M182.1,42c0.3,1.4,0.5,2.9,0.8,4.3c0.8-0.1,1.5-0.3,2.3-0.4c0.9-0.1,1.5-0.3,1.9-0.6c0.4-0.2,0.7-0.5,0.9-0.9
			c0.2-0.4,0.3-0.8,0.2-1.2c-0.1-0.4-0.2-0.8-0.5-1.1c-0.3-0.3-0.7-0.5-1.1-0.6c-0.4-0.1-1.1-0.1-2,0.1
			C183.7,41.8,182.9,41.9,182.1,42z"/>
		<path class="st3" d="M198.6,38.2c2.1-0.2,3.9,0.3,5.4,1.5c1.5,1.2,2.3,2.8,2.4,4.7c0.1,1.9-0.5,3.5-1.7,4.9
			c-1.2,1.4-2.8,2.2-4.7,2.4c-1.9,0.2-3.6-0.3-5.1-1.4c-1.5-1.1-2.4-2.6-2.6-4.5c-0.2-1.2,0-2.4,0.5-3.5c0.5-1.1,1.3-2.1,2.3-2.8
			C196.1,38.8,197.3,38.3,198.6,38.2z M198.8,39.5c-1,0.1-2,0.4-2.8,1c-0.9,0.6-1.5,1.3-1.9,2.2c-0.4,0.9-0.5,1.9-0.4,2.9
			c0.2,1.5,0.9,2.7,2.1,3.7c1.2,0.9,2.5,1.3,4.1,1.2c1-0.1,1.9-0.4,2.8-1c0.8-0.6,1.5-1.3,1.9-2.1c0.4-0.9,0.6-1.8,0.6-2.9
			c-0.1-1-0.4-1.9-0.9-2.7c-0.6-0.8-1.3-1.4-2.3-1.8C200.8,39.5,199.8,39.4,198.8,39.5z"/>
		<path class="st3" d="M209.4,50.8c-0.2-4.3-0.4-8.6-0.6-12.9c1,0,1.9-0.1,2.9-0.1c2.1-0.1,3.6,0.1,4.5,0.4c1.3,0.4,2.4,1.2,3.1,2.3
			c0.7,1.1,1.1,2.4,1.1,3.9c0,1.3-0.3,2.4-0.9,3.4c-0.6,1-1.3,1.7-2.2,2.2c-0.9,0.5-2.2,0.7-3.8,0.8
			C212.1,50.6,210.8,50.7,209.4,50.8z M210.6,49.5c0.5,0,1,0,1.5-0.1c1.8-0.1,3.1-0.2,3.8-0.4c1-0.3,1.8-0.9,2.3-1.7
			c0.6-0.8,0.9-1.8,0.9-3c0-1.2-0.3-2.3-0.9-3.2c-0.6-0.9-1.5-1.5-2.7-1.8c-0.9-0.2-2.3-0.3-4.3-0.3c-0.3,0-0.7,0-1,0
			C210.3,42.5,210.4,46,210.6,49.5z"/>
		<path class="st3" d="M223.2,37.7c0.5,0,0.9,0,1.4,0c-0.1,2.6-0.2,5.2-0.2,7.8c0,0.9,0,1.5,0,1.7c0.1,0.5,0.2,0.9,0.4,1.3
			c0.2,0.4,0.6,0.6,1.1,0.9c0.5,0.3,1,0.4,1.5,0.4c0.4,0,0.9-0.1,1.3-0.2c0.4-0.2,0.8-0.4,1-0.7c0.3-0.3,0.5-0.7,0.7-1.1
			c0.1-0.3,0.2-1,0.3-2c0.2-2.6,0.3-5.2,0.5-7.8c0.5,0,0.9,0.1,1.4,0.1c-0.2,2.6-0.4,5.2-0.5,7.8c-0.1,1.2-0.3,2.1-0.5,2.8
			c-0.3,0.7-0.8,1.3-1.5,1.8c-0.7,0.5-1.6,0.7-2.5,0.7c-1,0-1.9-0.3-2.7-0.9c-0.7-0.5-1.2-1.2-1.5-2c-0.1-0.5-0.2-1.4-0.2-2.7
			C223.1,42.9,223.2,40.3,223.2,37.7z"/>
		<path class="st3" d="M234.4,39.5c0-0.4,0.1-0.8,0.1-1.3c2.5,0.2,5.1,0.4,7.6,0.7c0,0.4-0.1,0.8-0.1,1.3c-1-0.1-2-0.2-3.1-0.3
			c-0.4,3.9-0.8,7.7-1.2,11.6c-0.4,0-0.9-0.1-1.3-0.1c0.4-3.9,0.7-7.7,1.1-11.6C236.4,39.7,235.4,39.6,234.4,39.5z"/>
		<path class="st3" d="M250.7,39.8c2.1,0.3,3.7,1.3,4.9,2.8c1.2,1.5,1.5,3.3,1.2,5.1c-0.4,1.9-1.3,3.3-2.9,4.4
			c-1.6,1.1-3.3,1.4-5.2,1.1c-1.9-0.3-3.4-1.2-4.6-2.7c-1.2-1.5-1.7-3.1-1.4-5c0.1-1.2,0.6-2.3,1.4-3.3c0.8-1,1.7-1.7,2.9-2.1
			C248.1,39.7,249.4,39.6,250.7,39.8z M250.5,41.1c-1-0.2-2-0.1-3,0.3c-1,0.4-1.8,0.9-2.4,1.7c-0.6,0.8-1,1.7-1.1,2.7
			c-0.2,1.5,0.2,2.9,1.1,4.1c0.9,1.2,2.1,1.9,3.7,2.1c1,0.2,2,0.1,2.9-0.3c0.9-0.3,1.7-0.9,2.4-1.6c0.6-0.7,1.1-1.6,1.2-2.6
			c0.2-1,0.1-2-0.2-2.9c-0.4-0.9-0.9-1.7-1.8-2.3C252.5,41.6,251.6,41.2,250.5,41.1z"/>
		<path class="st3" d="M257.2,52c0.4-0.1,0.8-0.3,1.2-0.4c0.5,1.6,1.2,2.4,2.2,2.7c0.4,0.1,0.9,0.1,1.3,0c0.4-0.1,0.8-0.3,1-0.6
			c0.3-0.3,0.5-0.6,0.5-1c0.1-0.4,0-0.9-0.2-1.3c-0.3-0.7-0.9-1.5-1.8-2.5c-0.9-1-1.5-1.8-1.7-2.2c-0.3-0.7-0.5-1.4-0.3-2.1
			c0.1-0.6,0.4-1,0.7-1.4c0.4-0.4,0.9-0.7,1.4-0.8c0.6-0.2,1.2-0.2,1.8,0c0.6,0.1,1.2,0.4,1.7,0.8c0.5,0.4,1,1.1,1.4,2
			c-0.4,0.2-0.9,0.3-1.3,0.5c-0.4-0.7-0.7-1.3-1-1.5c-0.3-0.3-0.7-0.5-1.1-0.6c-0.5-0.1-1-0.1-1.4,0.2c-0.4,0.2-0.7,0.6-0.8,1
			c-0.1,0.3-0.1,0.6,0,0.8c0.1,0.3,0.2,0.6,0.5,1c0.1,0.2,0.6,0.7,1.4,1.6c1,1.1,1.6,2,1.9,2.7c0.3,0.7,0.3,1.4,0.2,2
			c-0.2,0.9-0.8,1.6-1.6,2.1c-0.9,0.5-1.8,0.6-2.8,0.4c-0.8-0.2-1.4-0.5-2-1.1C258,53.9,257.6,53.1,257.2,52z"/>
	</g>
</g>
</svg>
